<?xml version="1.0" encoding="UTF-8"?><svg id="Layer_1" xmlns="http://www.w3.org/2000/svg" width="254" height="125" viewBox="0 0 254 125"><defs><style>.cls-1{fill:#fd7081;}.cls-1,.cls-2{opacity:.57;}.cls-1,.cls-2,.cls-3,.cls-4,.cls-5,.cls-6,.cls-7,.cls-8,.cls-9,.cls-10{stroke-width:0px;}.cls-2{fill:#457d8f;}.cls-3{fill:#fc5469;}.cls-4{fill:#636466;}.cls-5{fill:#195d74;}.cls-6{fill:#0f7774;}.cls-7{fill:#bbb6ae;}.cls-8{fill:#fff;}.cls-9{fill:#e3dacd;}.cls-10{fill:#f69d32;}</style></defs><path class="cls-4" d="m82.51,119.28c0,2.44-1.92,4.27-4.33,4.27s-4.33-1.83-4.33-4.27,1.91-4.27,4.33-4.27,4.33,1.84,4.33,4.27Zm-6.58,0c0,2.41.72,4.13,2.25,4.13s2.25-1.72,2.25-4.13-.72-4.13-2.25-4.13-2.25,1.72-2.25,4.13Z"/><path class="cls-4" d="m90.62,115.55c.09,0,.13-.07.13-.18v-.24h.14v2.43h-.14l-.04-.12c-.62-2.04-1.65-2.29-2.61-2.29-1.53,0-2.25,1.72-2.25,4.13s.72,4.13,2.25,4.13c.96,0,1.99-.25,2.61-2.29l.04-.12h.14v2.43h-.14v-.24c0-.11-.04-.18-.13-.18-.24,0-1.41.53-2.5.53-2.42,0-4.34-1.84-4.34-4.27s1.91-4.27,4.33-4.27c1.09,0,2.28.53,2.51.53Z"/><path class="cls-4" d="m95.5,115.27c-.31,0-.36.05-.36.36v7.3c0,.31.05.36.36.36h.24v.14h-3.2v-.14h.24c.31,0,.36-.05.36-.36v-7.3c0-.31-.05-.36-.36-.36h-.24v-.14h3.2v.14h-.24Zm4.45,0c-.31,0-.53.09-.77.34l-2.44,2.53,3.57,4.79c.19.26.31.36.6.36h.52v.14h-4.27v-.14h.4c.23,0,.33-.14.18-.36l-2.54-3.41,3.77-3.9c.19-.19.05-.34-.18-.34h-.93v-.14h2.96v.14h-.89Z"/><path class="cls-4" d="m109.33,115.27c-.32,0-.39.12-.49.34l-1.97,4.48v2.83c0,.31.05.36.36.36h.24v.14h-3.2v-.14h.24c.31,0,.36-.05.36-.36v-2.38l-2.56-4.92c-.14-.27-.19-.36-.49-.36h-.27v-.14h3.85v.14h-.6c-.23,0-.28.12-.18.36l2.19,4.27,1.87-4.26c.08-.2.05-.37-.18-.37h-.85v-.14h2.19v.14h-.51Z"/><path class="cls-4" d="m122.88,123.29v.14c-.53.07-1.01.12-1.41.12-1.28,0-1.97-.41-2.25-1.74-.4-1.88-.9-2.13-1.67-2.12h-.65v3.25c0,.31.05.36.36.36h.24v.14h-3.2v-.14h.24c.31,0,.36-.05.36-.36v-7.3c0-.31-.05-.36-.36-.36h-.24v-.14h4.02c.81,0,2.95.44,2.92,2.28-.02,1.11-1.19,2.05-2.27,2.2,1.46.19,2.15.81,2.42,1.9.3,1.2.47,1.79,1.29,1.79.07,0,.14,0,.21-.01Zm-5.05-3.75c1.02,0,1.49-.74,1.49-2.16s-.47-2.11-1.49-2.11h-.94v4.27h.94Z"/><path class="cls-4" d="m126.97,115.27c-.31,0-.36.05-.36.36v7.3c0,.31.05.36.36.36h.24v.14h-3.2v-.14h.24c.31,0,.36-.05.36-.36v-7.3c0-.31-.05-.36-.36-.36h-.24v-.14h3.2v.14h-.24Z"/><path class="cls-4" d="m132.59,115.13c2.41,0,4.07,1.48,4.07,4.15s-1.63,4.15-4.04,4.15h-4.26v-.14h.24c.31,0,.36-.05.36-.36v-7.3c0-.31-.05-.36-.36-.36h-.24v-.14h4.23Zm-1.26.14c-.31,0-.36.05-.36.36v7.3c0,.31.05.36.36.36h1.01c1.53,0,2.25-1.36,2.25-4.01s-.72-4.01-2.25-4.01h-1.01Z"/><path class="cls-4" d="m144.59,115.55c.09,0,.13-.07.13-.18v-.24h.14v2.43h-.14l-.04-.12c-.62-2.04-1.65-2.29-2.61-2.29-1.53,0-2.25,1.72-2.25,4.13s.55,4.13,2.08,4.13c1.08,0,1.54-.51,1.54-1.8v-1.83c0-.31-.05-.36-.36-.36h-.24v-.14h3.2v.14h-.24c-.31,0-.36.05-.36.36v1.16c0,1.59-1.59,2.61-3.56,2.61-2.42,0-4.15-1.84-4.15-4.27s1.91-4.27,4.33-4.27c1.09,0,2.28.53,2.51.53Z"/><path class="cls-4" d="m153.51,123.43h-6.82v-.14h.24c.31,0,.36-.05.36-.36v-7.3c0-.31-.05-.36-.36-.36h-.24v-.14h6.52v2.18h-.14v-.12c0-.66-.43-1.92-1.92-1.92h-1.49c-.31,0-.36.05-.36.36v3.49h1.14c1.26,0,1.45-.83,1.45-1.38v-.24h.14v3.37h-.14v-.24c0-.55-.19-1.38-1.45-1.38h-1.14v3.68c0,.31.05.36.36.36h1.79c1.49,0,1.92-1.37,1.92-1.92v-.12h.14v2.18Z"/><path class="cls-4" d="m168.18,115.27c-.31,0-.36.05-.36.36v7.3c0,.31.05.36.36.36h.24v.14h-3.2v-.14h.24c.31,0,.36-.05.36-.36v-7.01l-3.17,7.5h-.14l-3.24-7.85v7.35c0,.31.05.36.36.36h.43v.14h-1.71v-.14h.43c.31,0,.36-.05.36-.36v-7.3c0-.31-.05-.36-.36-.36h-.43v-.14h2.88l2.41,5.58,2.36-5.58h2.43v.14h-.24Z"/><path class="cls-4" d="m177.35,115.27c-.31,0-.36.05-.36.36v5.31c0,1.96-1.58,2.61-2.71,2.61-2.61,0-4.21-.47-4.21-2.96v-4.96c0-.31-.05-.36-.36-.36h-.24v-.14h3.2v.14h-.24c-.31,0-.36.05-.36.36v5.31c0,1.9,1.07,2.47,2.19,2.47s2.57-.63,2.57-2.47v-5.31c0-.31-.05-.36-.36-.36h-.43v-.14h1.71v.14h-.43Z"/><path class="cls-4" d="m184.15,115.55c.09,0,.13-.07.13-.18v-.24h.14v2.43h-.14l-.04-.12c-.55-1.8-1.17-2.29-2.19-2.29-.79,0-1.25.45-1.25,1.08,0,2.22,4.21,1.97,4.21,4.71,0,1.61-1.2,2.61-3.5,2.61-1.22,0-2.16-.53-2.4-.53-.09,0-.13.07-.13.18v.24h-.14v-2.43h.14l.04.12c.51,1.72,1.28,2.29,2.49,2.29,1.14,0,1.66-.47,1.66-1.34,0-2.17-4.21-1.85-4.21-4.74,0-1.39,1.21-2.31,3.08-2.31,1.07,0,1.86.53,2.1.53Z"/><path class="cls-4" d="m189.22,115.27c-.31,0-.36.05-.36.36v7.3c0,.31.05.36.36.36h.24v.14h-3.2v-.14h.24c.31,0,.36-.05.36-.36v-7.3c0-.31-.05-.36-.36-.36h-.24v-.14h3.2v.14h-.24Z"/><path class="cls-4" d="m197.48,115.55c.09,0,.13-.07.13-.18v-.24h.14v2.43h-.14l-.04-.12c-.62-2.04-1.65-2.29-2.61-2.29-1.53,0-2.25,1.72-2.25,4.13s.72,4.13,2.25,4.13c.96,0,1.99-.25,2.61-2.29l.04-.12h.14v2.43h-.14v-.24c0-.11-.04-.18-.13-.18-.24,0-1.41.53-2.5.53-2.42,0-4.34-1.84-4.34-4.27s1.91-4.27,4.33-4.27c1.09,0,2.28.53,2.51.53Z"/><path class="cls-4" d="m74.11,123.29v.14c-.53.07-1.01.12-1.41.12-1.28,0-1.97-.41-2.25-1.74-.4-1.88-.9-2.13-1.67-2.12h-.65v3.25c0,.31.05.36.36.36h.24v.14h-3.2v-.14h.24c.31,0,.36-.05.36-.36v-7.3c0-.31-.05-.36-.36-.36h-.24v-.14h4.02c.81,0,2.95.44,2.92,2.28-.02,1.11-1.19,2.05-2.27,2.2,1.46.19,2.15.81,2.42,1.9.3,1.2.47,1.79,1.29,1.79.07,0,.14,0,.21-.01Zm-5.05-3.75c1.02,0,1.49-.74,1.49-2.16s-.47-2.11-1.49-2.11h-.94v4.27h.94Z"/><path class="cls-9" d="m173.02,77.22s0,.01,0,.02h0s0,18.79,0,18.79h24.73v-18.81c0-6.83-5.54-12.36-12.37-12.36s-12.37,5.54-12.37,12.36Z"/><path class="cls-3" d="m173.02,77.23s0-.01,0-.02c0-3.55,1.5-6.75,3.9-9-2.22-2.09-5.2-3.38-8.48-3.38-6.84,0-12.38,5.54-12.38,12.38,0,0,0,.01,0,.02h0s0,18.82,0,18.82h16.96s0-18.82,0-18.82h0Z"/><path class="cls-8" d="m180.82,77.21c0-3.55-1.5-6.75-3.9-9-2.4,2.26-3.9,5.45-3.9,9,0,0,0,.01,0,.02h0s0,18.82,0,18.82h7.8v-18.84Z"/><path class="cls-7" d="m180.82,77.21c0-3.55-1.5-6.75-3.9-9-2.4,2.26-3.9,5.45-3.9,9,0,0,0,.01,0,.02h0s0,18.82,0,18.82h7.8v-18.84Z"/><path class="cls-8" d="m84.27,89.59h-3.23s3.23,0,3.23,0h.02s0,0,.01,0c0,0,0,0-.01,0h-.02Z"/><path class="cls-3" d="m96.58,77.21c0-6.84-5.54-12.38-12.38-12.38h-18.84v16.98h15.59s7.43,7.03,7.43,7.03c4.77-1.72,8.21-6.27,8.21-11.64Z"/><rect class="cls-5" x="65.36" y="81.81" width="15.59" height="24.76"/><polygon class="cls-10" points="80.95 81.81 80.95 106.57 107.1 106.57 80.95 81.81"/><path class="cls-1" d="m84.86,89.51c1.71-.07,2.93-.49,3.51-.66l-7.43-7.03v7.78c.06,0,1.95,0,3.92-.08Z"/><rect class="cls-6" x="156.05" y="96.05" width="41.73" height="10.51"/><rect class="cls-2" x="65.36" y="81.81" width="15.59" height="7.78"/><path class="cls-8" d="m129.7,89.59h-3.23s3.23,0,3.23,0h.02s0,0,.01,0c0,0,0,0-.01,0h-.02Z"/><path class="cls-3" d="m142.01,77.21c0-6.84-5.54-12.38-12.38-12.38h-18.84v16.98h15.59s7.43,7.03,7.43,7.03c4.77-1.72,8.21-6.27,8.21-11.64Z"/><rect class="cls-5" x="110.79" y="81.81" width="15.59" height="24.76"/><polygon class="cls-10" points="126.37 81.81 126.37 106.57 152.53 106.57 126.37 81.81"/><path class="cls-1" d="m130.29,89.51c1.71-.07,2.93-.49,3.51-.66l-7.43-7.03v7.78c.06,0,1.95,0,3.92-.08Z"/><rect class="cls-2" x="110.78" y="81.81" width="15.59" height="7.78"/><path class="cls-3" d="m0,112.26c.01-.79.11-1.56.29-2.3.18-.74.44-1.4.78-1.97.34-.57.75-1.02,1.23-1.35.48-.33,1.03-.48,1.67-.47.79.01,1.44.3,1.95.85.51.56.75,1.27.74,2.16-.01.88-.28,1.59-.79,2.13-.51.54-1.15.8-1.91.79-.3,0-.58-.07-.82-.2-.24-.12-.47-.26-.68-.4-.21-.14-.41-.27-.59-.4-.18-.12-.36-.19-.54-.19-.52,0-.78.44-.8,1.36,0,.58.23,1.07.73,1.47.5.4,1.47.62,2.93.64l7.16.12.07-4.1h.55s-.07,4.11-.07,4.11l20.34.33c.61,0,.99-.06,1.14-.21.16-.15.24-.53.25-1.14v-.91s.56,0,.56,0l-.2,12.08h-.55s.01-.92.01-.92c0-.61-.06-.99-.21-1.14-.15-.15-.53-.24-1.14-.25l-20.34-.33-.03,1.82h-.55s.03-1.83.03-1.83l-3.33-.05c-1.12-.02-2.18-.23-3.16-.64-.98-.41-1.83-1.02-2.55-1.82-.72-.8-1.27-1.81-1.66-3.01-.39-1.21-.57-2.62-.55-4.23Z"/><path class="cls-3" d="m2.34,96.95c.18-1.08.72-1.94,1.63-2.57.91-.64,1.9-.86,2.98-.68,1.08.18,1.94.71,2.58,1.61.64.89.87,1.88.69,2.96-.18,1.11-.72,1.98-1.61,2.62-.89.64-1.88.87-2.96.69-1.08-.18-1.95-.72-2.6-1.61-.65-.89-.89-1.9-.7-3.01Zm31.79,1.49c.6.1.99.09,1.16-.04.18-.12.31-.49.41-1.09l.15-.9.54.09-1.98,11.92-.54-.09.15-.9c.1-.6.09-.99-.04-1.16-.13-.17-.49-.31-1.09-.41l-17.37-2.88c-.6-.1-1.02-.08-1.26.05-.24.13-.37.49-.41,1.06l-.06.91-.54-.09.26-9.89,20.6,3.42Z"/><path class="cls-3" d="m20.33,71.6c.39-.99.89-1.87,1.51-2.64.62-.77,1.34-1.37,2.18-1.79.84-.42,1.79-.64,2.86-.66,1.07-.02,2.24.22,3.51.73l12.64,4.99c.57.22.95.29,1.14.21.2-.09.41-.41.63-.98l.33-.85.51.2-4.44,11.24-.51-.2.33-.85c.22-.56.29-.95.21-1.14-.09-.2-.41-.41-.98-.63l-14.17-5.59c-1.58-.62-2.82-.77-3.7-.43-.88.34-1.47.86-1.75,1.57-.52,1.33-.16,2.62,1.1,3.86,1.26,1.25,3.37,2.46,6.34,3.63l9.5,3.75c.57.22.95.29,1.14.21.2-.08.41-.41.63-.98l.33-.85.51.2-4.44,11.24-.51-.2.33-.85c.22-.57.29-.95.21-1.14-.09-.2-.41-.41-.98-.63l-16.37-6.46c-.57-.22-.98-.3-1.24-.22-.26.08-.47.4-.62.96l-.25.88-.51-.2,2.33-9.62,4.71,1.86c-.99-.65-1.72-1.34-2.2-2.07-.48-.73-.79-1.48-.92-2.25-.14-.77-.13-1.52,0-2.25s.33-1.4.58-2.03Z"/><path class="cls-3" d="m58.21,51.27c.49.37.83.54,1.05.51.21-.03.5-.29.87-.77l.55-.73.44.33-5.92,7.82-4.4-3.33c.88,1.01,1.48,1.95,1.79,2.84.32.89.45,1.72.4,2.5-.05.78-.25,1.49-.58,2.13-.33.64-.7,1.23-1.11,1.76-.64.85-1.45,1.56-2.41,2.12-.96.57-2.06.9-3.3.99-1.23.1-2.6-.11-4.11-.62-1.5-.51-3.13-1.42-4.87-2.74-1.75-1.32-3.07-2.63-3.96-3.94-.9-1.31-1.47-2.57-1.71-3.78-.24-1.21-.22-2.36.06-3.44.28-1.08.75-2.05,1.39-2.89.4-.53.87-1.05,1.4-1.54.53-.5,1.16-.88,1.89-1.14.73-.26,1.57-.37,2.5-.31.93.06,2.01.38,3.24.97l-10.87-8.23c-.48-.37-.86-.55-1.13-.54-.27,0-.56.26-.86.75l-.48.78-.44-.33,4.83-8.64,25.75,19.48Zm-23-2.71c-.33.44-.48.97-.46,1.59.02.63.26,1.34.7,2.13.45.8,1.13,1.68,2.06,2.64.93.97,2.14,2.02,3.64,3.16,1.48,1.12,2.82,2,4.01,2.63,1.2.64,2.24,1.06,3.12,1.28.89.21,1.63.25,2.24.1.61-.15,1.08-.44,1.41-.88.29-.39.44-.89.43-1.51,0-.62-.21-1.33-.59-2.13-.38-.8-.97-1.67-1.78-2.6-.8-.93-1.84-1.88-3.13-2.85l-1.53-1.16c-1.31-.99-2.51-1.74-3.62-2.25-1.1-.51-2.09-.84-2.97-.99-.88-.15-1.62-.14-2.21.01-.6.16-1.04.43-1.34.82Z"/><path class="cls-5" d="m74.4,13.82c-.51.34-.8.62-.88.86-.08.24-.05.67.08,1.32l4.41,22.67c.45,2.22.69,4.15.73,5.81.04,1.65-.06,3.06-.28,4.24-.23,1.17-.56,2.11-1,2.82-.44.71-.93,1.24-1.46,1.6-1.34.89-2.62,1.34-3.83,1.36-1.21.02-2.15-.48-2.82-1.49-.44-.66-.58-1.37-.42-2.13.15-.76.6-1.38,1.33-1.87.73-.49,1.47-.67,2.2-.56.73.12,1.31.49,1.73,1.12.2.3.33.6.38.9.05.3.08.57.08.82,0,.25,0,.49,0,.71,0,.22.06.42.18.6.13.2.29.28.46.24.17-.04.31-.1.41-.16.43-.29.84-.73,1.24-1.34.4-.61.71-1.46.94-2.54.23-1.08.33-2.43.31-4.03-.02-1.61-.25-3.53-.67-5.76l-20.34-12.12c-.53-.3-.93-.48-1.19-.52-.27-.04-.64.1-1.12.41l-1.06.71-.3-.46,11.98-7.93.3.46-2.09,1.38c-.74.49-.67.99.19,1.52l11.82,7.1-2.58-13.22c-.17-.98-.62-1.23-1.33-.76l-2.4,1.59-.3-.46,6.46-4.28.3.46-1.44.96Z"/><path class="cls-5" d="m87.98,7.36c1.77-.65,3.43-.97,5-.95,1.56.02,3,.34,4.32.96,1.31.62,2.47,1.52,3.48,2.7,1,1.18,1.82,2.62,2.44,4.3s.94,3.3.94,4.85c0,1.55-.29,2.99-.88,4.31-.6,1.32-1.48,2.5-2.66,3.53-1.17,1.03-2.64,1.88-4.41,2.53-1.74.64-3.4.96-4.98.94-1.58-.02-3.02-.33-4.34-.95-1.31-.62-2.47-1.52-3.48-2.7-1.01-1.18-1.82-2.62-2.44-4.3s-.94-3.3-.94-4.85c0-1.55.29-2.99.88-4.31.6-1.32,1.49-2.5,2.68-3.54,1.19-1.04,2.65-1.88,4.39-2.52Zm.19.51c-.8.3-1.36.8-1.7,1.53-.33.72-.47,1.61-.43,2.66s.25,2.25.6,3.59c.35,1.35.81,2.79,1.38,4.33.57,1.54,1.16,2.93,1.77,4.18.61,1.25,1.24,2.29,1.88,3.12.65.83,1.33,1.41,2.06,1.74.72.33,1.48.35,2.28.06.8-.3,1.36-.8,1.7-1.53.33-.72.47-1.61.43-2.66s-.25-2.25-.6-3.59c-.35-1.34-.81-2.79-1.38-4.33-.57-1.54-1.16-2.93-1.77-4.18-.61-1.25-1.24-2.29-1.88-3.12s-1.33-1.41-2.06-1.74c-.72-.33-1.48-.35-2.28-.06Z"/><path class="cls-5" d="m132.1,20.81c.05.61.16.98.32,1.12.16.14.55.18,1.15.13l.91-.07.04.55-9.77.8-.41-5.04c-.12,1.17-.41,2.13-.86,2.88-.46.75-1,1.36-1.64,1.83-.63.46-1.31.79-2.02.99-.72.2-1.41.32-2.07.38-1.06.09-2.07.02-3.04-.19-.96-.21-1.82-.6-2.57-1.16-.75-.56-1.37-1.32-1.86-2.27-.49-.95-.79-2.11-.9-3.47l-.99-12.18c-.05-.61-.17-1.01-.35-1.21-.18-.2-.56-.24-1.13-.14l-.9.17-.04-.55,9.66-2.16,1.4,17.09c.14,1.7.55,2.87,1.25,3.51.69.64,1.42.94,2.18.87,1.42-.12,2.42-1.01,2.98-2.69.56-1.68.72-4.11.46-7.29l-.72-8.82c-.05-.61-.17-1.01-.35-1.21-.18-.2-.56-.24-1.13-.14l-.9.17-.04-.55,9.66-2.16,1.7,20.81Z"/><path class="cls-5" d="m154.41,2.67c.54.09,1.07.26,1.58.52.51.26.96.58,1.34.99.38.4.65.88.82,1.43.17.55.2,1.17.08,1.86-.16.96-.6,1.71-1.3,2.26-.71.54-1.54.74-2.5.58-1.05-.18-1.81-.58-2.29-1.22-.48-.63-.65-1.39-.5-2.26.1-.57.29-1.03.58-1.38.29-.35.47-.71.53-1.07.04-.24.02-.45-.06-.63-.08-.18-.24-.29-.48-.33-.36-.06-.81.03-1.34.28-.54.25-1.07.72-1.6,1.42-.53.7-1.05,1.65-1.54,2.86-.5,1.21-.9,2.73-1.2,4.56l-1.7,10.16c-.1.6-.09.99.04,1.16.12.18.49.31,1.09.41l.9.15-.09.54-11.92-2,.09-.54.9.15c.6.1.99.09,1.16-.04.17-.12.31-.49.41-1.09l2.89-17.27c.11-.63.09-1.07-.03-1.32-.13-.25-.48-.4-1.06-.43l-.91-.06.09-.54,9.9.27-.95,5.67c.42-1.19.92-2.15,1.5-2.87.58-.72,1.2-1.26,1.84-1.61.64-.35,1.3-.57,1.96-.64.66-.07,1.26-.07,1.8.02Z"/><path class="cls-10" d="m201.26,24.16c.9.57,1.67,1.23,2.31,1.98.64.75,1.09,1.57,1.35,2.47.26.9.29,1.88.11,2.93-.18,1.05-.64,2.16-1.37,3.31l-7.28,11.47c-.33.51-.47.87-.42,1.08.05.21.33.48.84.8l.77.49-.29.46-10.21-6.47.29-.46.77.49c.51.33.87.46,1.08.42.21-.05.48-.33.8-.84l8.16-12.86c.91-1.44,1.29-2.62,1.12-3.55-.16-.93-.57-1.6-1.21-2.01-1.21-.77-2.54-.65-4,.35-1.46,1-3.05,2.85-4.76,5.54l-5.47,8.62c-.33.51-.47.87-.42,1.08.05.21.33.48.84.8l.77.49-.29.46-10.21-6.47.29-.46.77.49c.51.33.87.46,1.08.42.21-.05.48-.33.8-.84l8.16-12.86c.91-1.44,1.29-2.62,1.12-3.55-.16-.93-.57-1.6-1.21-2.01-1.21-.77-2.54-.65-4,.35-1.46,1-3.05,2.85-4.76,5.54l-5.47,8.62c-.33.51-.47.87-.42,1.08.05.21.33.48.84.8l.77.49-.29.46-10.21-6.47.29-.46.77.49c.51.33.87.46,1.08.42.21-.05.48-.33.8-.84l9.43-14.86c.33-.51.47-.9.45-1.17-.03-.27-.3-.53-.82-.79l-.82-.41.29-.46,9.01,4.1-2.71,4.27c.82-.85,1.64-1.43,2.45-1.77.81-.33,1.6-.5,2.39-.48.78.01,1.52.15,2.21.43.69.27,1.32.59,1.88.95,1.62,1.03,2.78,2.32,3.48,3.88.7,1.56.6,3.33-.3,5.32.92-1,1.81-1.69,2.67-2.08.86-.39,1.69-.58,2.5-.58.81,0,1.56.15,2.26.44.7.28,1.34.6,1.9.96Z"/><path class="cls-10" d="m212.54,68.17c-.48.37-.74.66-.77.87-.03.21.14.56.51,1.04l.56.72-.43.33-5.97-7.78,4.02-3.08c-1.05.53-2.01.81-2.89.84-.88.02-1.69-.1-2.42-.38-.73-.28-1.38-.67-1.93-1.17-.55-.5-1.03-1.01-1.44-1.54-.65-.84-1.14-1.73-1.49-2.65-.34-.92-.48-1.85-.41-2.79.07-.93.37-1.86.9-2.79.53-.93,1.34-1.81,2.43-2.64l9.7-7.44c.48-.37.76-.69.82-.95.07-.26-.1-.6-.5-1.02l-.63-.67.43-.33,7.05,6.95-13.61,10.43c-1.35,1.04-2.11,2.02-2.28,2.95-.17.93-.02,1.7.44,2.3.87,1.13,2.16,1.48,3.88,1.05,1.72-.44,3.84-1.62,6.37-3.57l7.02-5.38c.48-.37.76-.69.82-.95.07-.26-.1-.6-.5-1.02l-.63-.67.43-.33,7.05,6.95-16.57,12.71Z"/><path class="cls-10" d="m233.12,81.62l.36-.31c1.24-1.03,2.17-1.99,2.79-2.86.61-.88,1.03-1.68,1.24-2.42.21-.74.27-1.41.17-2.03-.1-.62-.27-1.19-.49-1.72-.46-1.06-1.05-1.7-1.79-1.91-.74-.21-1.37-.2-1.9.02-.87.37-1.49.96-1.87,1.77-.38.81-.64,1.72-.79,2.72-.15,1.01-.24,2.08-.3,3.23-.05,1.15-.21,2.25-.46,3.3-.26,1.05-.67,2.02-1.23,2.91-.56.89-1.43,1.58-2.6,2.09-.87.37-1.78.58-2.73.63-.96.05-1.91-.16-2.88-.62-.96-.46-1.9-1.21-2.82-2.23-.92-1.03-1.77-2.43-2.54-4.22-.26-.61-.46-1.32-.59-2.11-.13-.79-.22-1.55-.29-2.28-.07-.73-.12-1.38-.17-1.94-.04-.56-.11-.95-.21-1.18-.13-.31-.41-.37-.83-.19l-1.05.45-.22-.5,7.33-3.16.22.5-.36.31c-1.24,1.03-2.15,2.03-2.73,2.99-.58.96-.95,1.87-1.11,2.71-.16.85-.18,1.62-.04,2.33.14.7.32,1.32.55,1.85.31.73.68,1.29,1.1,1.69.42.4.85.68,1.28.84.43.16.85.22,1.25.18.4-.04.72-.11.97-.22.84-.36,1.41-.94,1.73-1.74.32-.8.52-1.71.61-2.74.09-1.03.14-2.13.17-3.3.03-1.17.17-2.31.42-3.41.25-1.1.7-2.12,1.34-3.06.64-.94,1.6-1.68,2.88-2.24.87-.37,1.75-.55,2.65-.52.9.02,1.8.28,2.69.78.89.49,1.75,1.23,2.57,2.22.82.99,1.57,2.26,2.24,3.82.28.64.47,1.31.57,2.01.1.7.16,1.36.18,1.98s.02,1.17.02,1.66c0,.48.03.82.12,1.02.13.31.41.37.83.19l1.05-.45.22.5-7.33,3.16-.22-.5Z"/><path class="cls-10" d="m223.98,99.59c-.59.14-.94.3-1.06.48-.11.18-.1.57.04,1.16l.21.89-.53.12-2.76-11.76.53-.13.21.89c.14.59.3.94.48,1.06.18.11.57.1,1.16-.04l17.14-4.02c.59-.14.97-.31,1.14-.53.17-.21.16-.59-.03-1.14l-.3-.87.53-.13,3.57,9.23-20.33,4.77Zm29.91-10.86c.25,1.07.08,2.07-.51,3-.59.94-1.42,1.53-2.49,1.78s-2.06.09-3-.49-1.52-1.4-1.77-2.46c-.26-1.1-.1-2.11.48-3.04.58-.93,1.4-1.52,2.46-1.77,1.07-.25,2.07-.09,3.02.49.95.57,1.55,1.41,1.81,2.5Z"/><path class="cls-10" d="m247.01,115.59c.05,1.12-.06,2.22-.32,3.3-.26,1.07-.64,2.04-1.14,2.9-.5.86-1.08,1.55-1.74,2.08-.66.53-1.38.81-2.13.84-.97.04-1.76-.2-2.36-.7-.6-.51-.92-1.29-.96-2.36-.04-1.06.23-1.91.81-2.54.58-.63,1.33-.97,2.24-1,.7-.03,1.32,0,1.87.08.55.08,1.07.12,1.56.1.43-.02.81-.2,1.16-.55.35-.35.51-1.05.46-2.12-.04-1.09-.36-1.99-.95-2.7-.59-.71-1.4-1.26-2.42-1.66-1.02-.4-2.23-.66-3.61-.79-1.39-.13-2.9-.16-4.55-.09-3.95.16-6.75.81-8.41,1.96-1.66,1.15-2.45,2.69-2.37,4.64.06,1.43.49,2.83,1.29,4.22.8,1.38,2,2.56,3.59,3.53l-.54.3c-1.4-.83-2.6-2.02-3.59-3.6-.99-1.57-1.54-3.65-1.64-6.23-.07-1.85.14-3.53.64-5.02.5-1.5,1.25-2.77,2.24-3.83.99-1.06,2.21-1.88,3.64-2.47,1.44-.59,3.05-.92,4.84-.99,1.79-.07,3.43.16,4.91.69,1.48.53,2.76,1.34,3.84,2.42,1.08,1.08,1.93,2.43,2.56,4.05.63,1.62.98,3.47,1.07,5.57Z"/></svg>
